<svg viewBox="0.0 0.0 997.0209973753281 438.41207349081367" fill="none" stroke-linecap="square" stroke-miterlimit="10" xmlns="http://www.w3.org/2000/svg"><clipPath id="a"><path d="M0 0h997.021v438.412H0V0z"/></clipPath><g clip-path="url(#a)"><path d="M0 0h997.021v438.412H0zm206.777 264.857v72.22"/><path stroke="#666" stroke-linejoin="round" stroke-linecap="butt" stroke-dasharray="4.0,3.0" d="M206.777 264.857v72.22"/><path fill="#f3f3f3" d="M206.86 102.213h775.906v153.7H206.861z" fill-rule="evenodd"/><path stroke="#666" stroke-width="2" stroke-linejoin="round" stroke-linecap="butt" d="M206.86 102.213h775.906v153.7H206.861z"/><path fill="#666" d="M218.798 126.573h-1.5v-11.375h1.5v11.375zm3.883-8.454l.047 1.063q.969-1.219 2.531-1.219 2.672 0 2.703 3.016v5.594h-1.453v-5.594q0-.922-.422-1.36-.406-.437-1.265-.437-.703 0-1.235.375-.53.375-.828.984v6.032h-1.453v-8.454h1.375zm12.375 6.204q0-.579-.437-.907-.438-.328-1.547-.562-1.094-.235-1.735-.563-.64-.328-.953-.78-.312-.454-.312-1.079 0-1.031.875-1.75.89-.719 2.25-.719 1.437 0 2.328.75.906.735.906 1.89h-1.453q0-.593-.516-1.015-.5-.437-1.265-.437-.781 0-1.235.343-.437.344-.437.891 0 .531.406.797.422.266 1.5.516 1.078.234 1.75.578.672.328 1 .797.328.468.328 1.156 0 1.125-.906 1.812-.906.688-2.36.688-1.015 0-1.796-.36-.781-.359-1.219-1-.437-.656-.437-1.406h1.437q.047.735.578 1.156.547.422 1.438.422.828 0 1.312-.328.5-.328.5-.89zm5.297-8.25v2.046h1.578v1.11h-1.578v5.25q0 .5.203.765.219.25.719.25.25 0 .687-.093v1.172q-.562.156-1.109.156-.969 0-1.469-.578-.484-.594-.484-1.672v-5.25h-1.531v-1.11h1.531v-2.046h1.453zm8.477 10.5q-.125-.25-.203-.891-1 1.047-2.407 1.047-1.25 0-2.047-.703-.796-.719-.796-1.797 0-1.328 1-2.047 1-.734 2.828-.734h1.406v-.672q0-.75-.453-1.203-.453-.454-1.344-.454-.766 0-1.297.391-.515.39-.515.953h-1.454q0-.64.438-1.219.453-.593 1.219-.937.78-.344 1.703-.344 1.453 0 2.281.735.828.718.86 2v3.89q0 1.172.296 1.86v.125h-1.515zm-2.391-1.11q.672 0 1.281-.344.61-.359.89-.921v-1.735h-1.14q-2.656 0-2.656 1.563 0 .672.453 1.062.453.375 1.172.375zm7.25-7.344l.047 1.063q.969-1.219 2.531-1.219 2.672 0 2.703 3.016v5.594h-1.453v-5.594q0-.922-.422-1.36-.406-.437-1.265-.437-.703 0-1.235.375-.531.375-.828.984v6.032h-1.453v-8.454h1.375zm10.844 7.422q.781 0 1.36-.468.577-.47.64-1.172h1.36q-.032.734-.5 1.39-.454.657-1.235 1.047-.766.39-1.625.39-1.719 0-2.75-1.155-1.016-1.157-1.016-3.157v-.234q0-1.234.453-2.188.453-.968 1.297-1.5.86-.53 2.016-.53 1.422 0 2.36.859.937.843 1 2.203h-1.36q-.063-.828-.625-1.344-.563-.531-1.375-.531-1.11 0-1.719.797-.594.78-.594 2.28v.282q0 1.453.594 2.25.61.781 1.719.781zm8.5 1.188q-1.719 0-2.797-1.125-1.078-1.14-1.078-3.031v-.266q0-1.25.469-2.234.484-1 1.343-1.547.875-.563 1.875-.563 1.657 0 2.563 1.094.922 1.078.922 3.094v.61h-5.735q.032 1.25.735 2.015.703.765 1.78.765.767 0 1.298-.312.531-.313.922-.828l.89.687q-1.062 1.64-3.187 1.64zm-.188-7.578q-.875 0-1.468.64-.594.625-.735 1.782h4.235v-.11q-.063-1.11-.594-1.703-.531-.61-1.438-.61z"/><path fill="#4285f4" fill-opacity=".288" d="M296.225 102.219h584.22v169.417h-584.22z" fill-rule="evenodd"/><path fill="#34a853" d="M296.225 41.967v73.683c0 31.65 25.659 57.309 57.31 57.309h344.264a57.309 57.309 0 0 0 57.309-57.31V76.176h11.228l-18.813-34.208-18.813 34.208h11.227v39.475c0 23.272-18.866 42.139-42.138 42.139H353.535c-23.273 0-42.14-18.867-42.14-42.14V41.968z" fill-rule="evenodd"/><path stroke="#fff" stroke-width="4" stroke-linejoin="round" stroke-linecap="butt" d="M296.225 41.967v73.683c0 31.65 25.659 57.309 57.31 57.309h344.264a57.309 57.309 0 0 0 57.309-57.31V76.176h11.228l-18.813-34.208-18.813 34.208h11.227v39.475c0 23.272-18.866 42.139-42.138 42.139H353.535c-23.273 0-42.14-18.867-42.14-42.14V41.968z"/><path fill="#ea4335" d="M418.998 41.966V134.2c0 39.619 32.118 71.736 71.736 71.736h315.779a71.736 71.736 0 0 0 71.736-71.736V74.227h10.86l-18.626-32.26-18.625 32.26h10.86V134.2c0 31.041-25.164 56.205-56.205 56.205H490.734c-31.04 0-56.205-25.164-56.205-56.205V41.966z" fill-rule="evenodd"/><path stroke="#fff" stroke-width="4" stroke-linejoin="round" stroke-linecap="butt" d="M418.998 41.966V134.2c0 39.619 32.118 71.736 71.736 71.736h315.779a71.736 71.736 0 0 0 71.736-71.736V74.227h10.86l-18.626-32.26-18.625 32.26h10.86V134.2c0 31.041-25.164 56.205-56.205 56.205H490.734c-31.04 0-56.205-25.164-56.205-56.205V41.966z"/><path d="M236.328.001h132.126v43.024H236.328z"/><path fill="#34a853" d="M253.31 22.764h-2.673v4.609h-1.515V15.998h3.765q1.922 0 2.954.875 1.046.875 1.046 2.547 0 1.062-.578 1.86-.578.78-1.593 1.171l2.671 4.828v.094h-1.609l-2.469-4.61zm-2.673-1.22h2.297q1.125 0 1.782-.577.656-.578.656-1.547 0-1.063-.625-1.625-.625-.563-1.813-.563h-2.297v4.313zm11.633 5.985q-1.718 0-2.797-1.125-1.078-1.14-1.078-3.031v-.266q0-1.25.469-2.234.484-1 1.344-1.547.875-.562 1.875-.562 1.656 0 2.562 1.093.922 1.079.922 3.094v.61h-5.734q.031 1.25.734 2.015.703.766 1.781.766.766 0 1.297-.313.532-.312.922-.828l.89.688q-1.062 1.64-3.187 1.64zm-.187-7.578q-.875 0-1.469.64-.594.626-.734 1.782h4.234v-.11q-.062-1.109-.594-1.702-.531-.61-1.437-.61zm4.804 3.125q0-2 .907-3.156.922-1.156 2.453-1.156 1.5 0 2.375 1l.062-.844h1.328v11.703h-1.453v-4.031q-.875.937-2.328.937-1.531 0-2.437-1.187-.907-1.203-.907-3.172v-.094zm1.438.156q0 1.454.61 2.282.624.828 1.656.828 1.296 0 1.968-1.14V21.06q-.687-1.11-1.953-1.11-1.047 0-1.672.828-.609.828-.609 2.453zm13.219 3.297q-.844 1-2.469 1-1.36 0-2.063-.781-.703-.797-.718-2.328v-5.5h1.453v5.453q0 1.922 1.562 1.922 1.657 0 2.203-1.234V18.92h1.438v8.453h-1.375l-.031-.844zm7.117 1q-1.719 0-2.797-1.125-1.078-1.14-1.078-3.031v-.266q0-1.25.469-2.234.484-1 1.343-1.547.875-.562 1.875-.562 1.657 0 2.563 1.093.922 1.079.922 3.094v.61h-5.735q.032 1.25.735 2.015.703.766 1.781.766.766 0 1.297-.313.531-.312.922-.828l.89.688q-1.062 1.64-3.187 1.64zm-.188-7.578q-.875 0-1.468.64-.594.626-.735 1.782h4.235v-.11q-.063-1.109-.594-1.702-.531-.61-1.438-.61zm10.07 5.172q0-.578-.437-.906-.437-.328-1.547-.563-1.093-.234-1.734-.562-.64-.328-.953-.781-.313-.454-.313-1.079 0-1.03.875-1.75.891-.718 2.25-.718 1.438 0 2.328.75.907.734.907 1.89h-1.453q0-.593-.516-1.015-.5-.438-1.266-.438-.78 0-1.234.344-.438.344-.438.89 0 .532.407.797.422.266 1.5.516 1.078.234 1.75.578.672.328 1 .797.328.469.328 1.156 0 1.125-.906 1.813-.907.687-2.36.687-1.015 0-1.797-.36-.78-.358-1.218-1-.438-.655-.438-1.405h1.438q.046.734.578 1.156.547.422 1.437.422.828 0 1.313-.328.5-.328.5-.891zm5.298-8.25v2.047h1.578v1.11h-1.578v5.25q0 .5.203.765.218.25.718.25.25 0 .688-.094v1.172q-.563.156-1.11.156-.968 0-1.468-.578-.485-.594-.485-1.672v-5.25h-1.53v-1.11h1.53v-2.046h1.454zm11.828 10.5h-1.453v-9.64l-2.922 1.078v-1.313l4.14-1.562h.235v11.437zm11.914-5.078q-1.922-.547-2.813-1.36-.875-.812-.875-2 0-1.343 1.078-2.218 1.079-.875 2.797-.875 1.172 0 2.078.453.922.453 1.422 1.25.516.797.516 1.734h-1.516q0-1.031-.656-1.61-.656-.593-1.844-.593-1.11 0-1.734.485-.625.484-.625 1.359 0 .687.594 1.172.593.484 2 .89 1.422.391 2.218.875.813.47 1.188 1.11.39.64.39 1.515 0 1.375-1.078 2.22-1.078.827-2.875.827-1.171 0-2.187-.453-1.016-.453-1.578-1.234-.547-.781-.547-1.766h1.516q0 1.031.75 1.625.765.594 2.046.594 1.188 0 1.813-.484.64-.485.64-1.313 0-.844-.593-1.297-.578-.453-2.125-.906zm7.883-5.422v2.047h1.578v1.11h-1.578v5.25q0 .5.203.765.218.25.718.25.25 0 .688-.094v1.172q-.563.156-1.11.156-.968 0-1.468-.578-.485-.594-.485-1.672v-5.25h-1.53v-1.11h1.53v-2.046h1.454zm8.476 10.5q-.125-.25-.203-.89-1 1.046-2.406 1.046-1.25 0-2.047-.703-.797-.719-.797-1.797 0-1.328 1-2.047 1-.734 2.828-.734h1.406v-.672q0-.75-.453-1.203-.453-.453-1.343-.453-.766 0-1.297.39-.516.391-.516.954h-1.453q0-.641.437-1.22.454-.593 1.22-.937.78-.343 1.702-.343 1.453 0 2.282.734.828.719.859 2v3.89q0 1.173.297 1.86v.125h-1.516zm-2.39-1.11q.671 0 1.28-.343.61-.36.891-.922v-1.734h-1.14q-2.656 0-2.656 1.562 0 .672.453 1.063.453.375 1.172.375zm9.968-6.046q-.328-.063-.718-.063-1.422 0-1.922 1.219v6h-1.453V18.92h1.406l.031.969q.703-1.125 2.016-1.125.422 0 .64.109v1.344zm3.29-3.344v2.047h1.577v1.11h-1.578v5.25q0 .5.203.765.22.25.72.25.25 0 .687-.094v1.172q-.563.156-1.11.156-.968 0-1.468-.578-.485-.594-.485-1.672v-5.25h-1.531v-1.11h1.531v-2.046h1.453z"/><path d="M683.605 5.248H815.73v43.024H683.605z"/><path fill="#34a853" d="M704.144 28.01h-2.672v4.61h-1.515V21.245h3.765q1.922 0 2.953.875 1.047.875 1.047 2.547 0 1.062-.578 1.859-.578.781-1.594 1.172l2.672 4.828v.094h-1.61l-2.468-4.61zm-2.672-1.218h2.297q1.125 0 1.781-.579.657-.578.657-1.546 0-1.063-.625-1.625-.625-.563-1.813-.563h-2.297v4.313zm11.633 5.984q-1.719 0-2.797-1.125-1.078-1.14-1.078-3.031v-.266q0-1.25.469-2.234.484-1 1.344-1.547.875-.563 1.875-.563 1.656 0 2.562 1.094.922 1.078.922 3.094v.61h-5.734q.03 1.25.734 2.015.703.765 1.781.765.766 0 1.297-.312.531-.313.922-.828l.89.687q-1.062 1.641-3.187 1.641zm-.187-7.578q-.875 0-1.47.64-.593.625-.733 1.782h4.234v-.11q-.063-1.109-.594-1.703-.531-.61-1.437-.61zm4.804 3.125q0-2 .907-3.156.921-1.157 2.453-1.157 1.5 0 2.375 1l.062-.843h1.328V35.87h-1.453v-4.032q-.875.938-2.328.938-1.531 0-2.437-1.188-.907-1.203-.907-3.171v-.094zm1.438.156q0 1.453.61 2.281.624.828 1.655.828 1.297 0 1.97-1.14v-4.14q-.688-1.11-1.954-1.11-1.047 0-1.672.828-.61.828-.61 2.453zm13.219 3.297q-.844 1-2.47 1-1.359 0-2.062-.781-.703-.797-.718-2.328v-5.5h1.453v5.453q0 1.922 1.562 1.922 1.656 0 2.203-1.235v-6.14h1.438v8.453h-1.375l-.031-.844zm7.117 1q-1.719 0-2.797-1.125-1.078-1.14-1.078-3.031v-.266q0-1.25.469-2.234.484-1 1.343-1.547.875-.563 1.875-.563 1.657 0 2.563 1.094.922 1.078.922 3.094v.61h-5.735q.032 1.25.735 2.015.703.765 1.78.765.767 0 1.298-.312.531-.313.922-.828l.89.687q-1.062 1.641-3.187 1.641zm-.188-7.578q-.875 0-1.468.64-.594.625-.735 1.782h4.235v-.11q-.063-1.109-.594-1.703-.531-.61-1.438-.61zm10.07 5.172q0-.578-.437-.907-.437-.328-1.547-.562-1.094-.234-1.734-.563-.64-.328-.953-.78-.313-.454-.313-1.079 0-1.031.875-1.75.89-.719 2.25-.719 1.438 0 2.328.75.907.735.907 1.891H749.3q0-.594-.515-1.016-.5-.437-1.266-.437-.781 0-1.234.344-.438.343-.438.89 0 .531.407.797.421.266 1.5.516 1.078.234 1.75.578.671.328 1 .797.328.468.328 1.156 0 1.125-.907 1.812-.906.688-2.359.688-1.016 0-1.797-.36-.781-.359-1.219-1-.437-.656-.437-1.406h1.437q.047.735.579 1.157.546.421 1.437.421.828 0 1.313-.328.5-.328.5-.89zm5.297-8.25v2.047h1.579v1.109h-1.579v5.25q0 .5.204.766.218.25.718.25.25 0 .688-.094v1.172q-.563.156-1.11.156-.968 0-1.468-.578-.485-.594-.485-1.672v-5.25h-1.531v-1.11h1.531V22.12h1.453zm11.829 10.5h-1.454v-9.64l-2.921 1.077v-1.312l4.14-1.563h.235V32.62zm14.992-5.266h-4.922v4.031h5.719v1.235h-7.22V21.245h7.141v1.234h-5.64v3.656h4.922v1.22zm3.812-3.187l.047 1.062q.969-1.219 2.531-1.219 2.672 0 2.703 3.016v5.594h-1.453v-5.594q0-.922-.422-1.36-.406-.437-1.265-.437-.703 0-1.235.375-.53.375-.828.984v6.032h-1.453v-8.453h1.375zm7.11 4.156q0-1.953.921-3.125.922-1.188 2.407-1.188 1.484 0 2.36 1.016V20.62h1.437v12h-1.329l-.062-.907q-.875 1.063-2.422 1.063-1.469 0-2.39-1.203-.922-1.203-.922-3.14v-.11zm1.437.156q0 1.438.594 2.25.594.813 1.64.813 1.375 0 2.016-1.235v-3.875q-.656-1.203-2-1.203-1.062 0-1.656.828-.594.813-.594 2.422z"/><path d="M360.18 0h132.126v43.024H360.18z"/><path fill="#ea4335" d="M377.161 22.762h-2.672v4.61h-1.515V15.997h3.765q1.922 0 2.953.875 1.047.875 1.047 2.547 0 1.062-.578 1.86-.578.78-1.594 1.17l2.672 4.83v.093h-1.609l-2.469-4.61zm-2.672-1.218h2.297q1.125 0 1.781-.578.657-.579.657-1.547 0-1.063-.625-1.625-.625-.563-1.813-.563h-2.297v4.313zm11.633 5.984q-1.719 0-2.797-1.125-1.078-1.14-1.078-3.031v-.266q0-1.25.469-2.234.484-1 1.344-1.547.875-.563 1.875-.563 1.656 0 2.562 1.094.922 1.078.922 3.094v.61h-5.734q.03 1.25.734 2.015.703.766 1.781.766.766 0 1.297-.313.531-.312.922-.828l.89.687q-1.062 1.641-3.187 1.641zm-.187-7.578q-.875 0-1.47.64-.593.626-.733 1.782h4.234v-.11q-.063-1.109-.594-1.703-.531-.61-1.437-.61zm4.804 3.125q0-2 .907-3.156.921-1.157 2.453-1.157 1.5 0 2.375 1l.062-.843h1.328v11.703h-1.453V26.59q-.875.937-2.328.937-1.531 0-2.437-1.187-.907-1.204-.907-3.172v-.094zm1.438.156q0 1.453.61 2.281.624.829 1.655.829 1.297 0 1.97-1.141v-4.14q-.688-1.11-1.954-1.11-1.047 0-1.672.828-.61.828-.61 2.453zm13.219 3.297q-.844 1-2.47 1-1.359 0-2.062-.781-.703-.797-.718-2.328v-5.5h1.453v5.453q0 1.922 1.562 1.922 1.656 0 2.203-1.235v-6.14h1.438v8.453h-1.375l-.031-.844zm7.117 1q-1.719 0-2.797-1.125-1.078-1.14-1.078-3.031v-.266q0-1.25.469-2.234.484-1 1.343-1.547.875-.563 1.875-.563 1.657 0 2.563 1.094.922 1.078.922 3.094v.61h-5.735q.032 1.25.735 2.015.703.766 1.78.766.767 0 1.298-.313.531-.312.922-.828l.89.687q-1.062 1.641-3.187 1.641zm-.188-7.578q-.875 0-1.468.64-.594.626-.735 1.782h4.235v-.11q-.063-1.109-.594-1.703-.531-.61-1.438-.61zm10.07 5.172q0-.578-.437-.906-.437-.329-1.547-.563-1.094-.234-1.734-.562-.64-.329-.953-.782-.313-.453-.313-1.078 0-1.031.875-1.75.89-.719 2.25-.719 1.438 0 2.328.75.907.735.907 1.891h-1.454q0-.594-.515-1.016-.5-.437-1.266-.437-.781 0-1.234.344-.438.343-.438.89 0 .532.407.797.421.266 1.5.516 1.078.234 1.75.578.671.328 1 .797.328.469.328 1.156 0 1.125-.907 1.813-.906.687-2.359.687-1.016 0-1.797-.36-.781-.359-1.219-1-.437-.656-.437-1.406h1.437q.047.735.579 1.157.546.422 1.437.422.828 0 1.313-.329.5-.328.5-.89zm5.297-8.25v2.047h1.579v1.11h-1.579v5.25q0 .5.204.765.218.25.718.25.25 0 .688-.094v1.172q-.563.156-1.11.156-.968 0-1.468-.578-.485-.594-.485-1.672v-5.25h-1.53v-1.11h1.53v-2.046h1.453zm14.532 10.5h-7.453v-1.047l3.937-4.375q.875-.984 1.203-1.61.328-.624.328-1.28 0-.891-.547-1.454-.53-.578-1.421-.578-1.079 0-1.688.61-.594.609-.594 1.703h-1.437q0-1.563 1-2.532 1.015-.968 2.719-.968 1.578 0 2.5.828.921.828.921 2.218 0 1.672-2.14 4l-3.047 3.297h5.719v1.188zm9.21-5.078q-1.921-.547-2.812-1.36-.875-.812-.875-2 0-1.343 1.078-2.218t2.797-.875q1.172 0 2.078.453.922.453 1.422 1.25.516.797.516 1.734h-1.516q0-1.031-.656-1.61-.656-.593-1.844-.593-1.11 0-1.734.484-.625.485-.625 1.36 0 .687.594 1.172.593.484 2 .89 1.421.39 2.218.875.813.469 1.188 1.11.39.64.39 1.515 0 1.375-1.078 2.219-1.078.828-2.875.828-1.172 0-2.187-.453-1.016-.453-1.578-1.234-.547-.782-.547-1.766h1.515q0 1.031.75 1.625.766.594 2.047.594 1.188 0 1.813-.485.64-.484.64-1.312 0-.844-.593-1.297-.578-.453-2.125-.906zm7.883-5.422v2.047h1.579v1.11h-1.579v5.25q0 .5.204.765.218.25.718.25.25 0 .688-.094v1.172q-.563.156-1.11.156-.968 0-1.468-.578-.485-.594-.485-1.672v-5.25h-1.53v-1.11h1.53v-2.046h1.453zm8.477 10.5q-.125-.25-.203-.89-1 1.046-2.406 1.046-1.25 0-2.047-.703-.797-.719-.797-1.797 0-1.328 1-2.047 1-.734 2.828-.734h1.406v-.672q0-.75-.453-1.203-.453-.453-1.344-.453-.765 0-1.296.39-.516.39-.516.953h-1.453q0-.64.437-1.218.453-.594 1.219-.938.781-.344 1.703-.344 1.453 0 2.281.735.829.719.86 2v3.89q0 1.172.297 1.86v.125h-1.516zm-2.39-1.11q.671 0 1.28-.343.61-.36.891-.922v-1.735h-1.14q-2.657 0-2.657 1.563 0 .672.454 1.062.453.375 1.171.375zm9.968-6.046q-.328-.063-.719-.063-1.421 0-1.921 1.219v6h-1.454v-8.453h1.407l.03.968q.704-1.125 2.017-1.125.421 0 .64.11v1.344zm3.29-3.344v2.047h1.577v1.11h-1.578v5.25q0 .5.203.765.22.25.72.25.25 0 .687-.094v1.172q-.563.156-1.11.156-.969 0-1.469-.578-.484-.594-.484-1.672v-5.25h-1.531v-1.11h1.531v-2.046h1.453z"/><path d="M807.4 5.248h132.125v43.024H807.4z"/><path fill="#ea4335" d="M827.939 28.01h-2.672v4.61h-1.516V21.245h3.766q1.922 0 2.953.875 1.047.875 1.047 2.547 0 1.062-.578 1.859-.578.781-1.594 1.172l2.672 4.828v.094h-1.61l-2.468-4.61zm-2.672-1.218h2.297q1.125 0 1.78-.579.657-.578.657-1.546 0-1.063-.625-1.625-.625-.563-1.812-.563h-2.297v4.313zm11.633 5.984q-1.72 0-2.797-1.125-1.078-1.14-1.078-3.031v-.266q0-1.25.468-2.234.485-1 1.344-1.547.875-.563 1.875-.563 1.656 0 2.563 1.094.921 1.078.921 3.094v.61h-5.734q.031 1.25.734 2.015.704.765 1.782.765.765 0 1.297-.312.53-.313.921-.828l.891.687q-1.062 1.641-3.187 1.641zm-.188-7.578q-.875 0-1.469.64-.593.625-.734 1.782h4.234v-.11q-.062-1.109-.593-1.703-.532-.61-1.438-.61zm4.805 3.125q0-2 .906-3.156.922-1.157 2.453-1.157 1.5 0 2.375 1l.063-.843h1.328V35.87h-1.453v-4.032q-.875.938-2.328.938-1.532 0-2.438-1.188-.906-1.203-.906-3.171v-.094zm1.437.156q0 1.453.61 2.281.625.828 1.656.828 1.297 0 1.969-1.14v-4.14q-.688-1.11-1.953-1.11-1.047 0-1.672.828-.61.828-.61 2.453zm13.219 3.297q-.844 1-2.469 1-1.36 0-2.062-.781-.703-.797-.719-2.328v-5.5h1.453v5.453q0 1.922 1.563 1.922 1.656 0 2.203-1.235v-6.14h1.437v8.453h-1.375l-.031-.844zm7.117 1q-1.719 0-2.797-1.125-1.078-1.14-1.078-3.031v-.266q0-1.25.469-2.234.484-1 1.344-1.547.875-.563 1.875-.563 1.656 0 2.562 1.094.922 1.078.922 3.094v.61h-5.734q.031 1.25.734 2.015.703.765 1.781.765.766 0 1.297-.312.531-.313.922-.828l.89.687q-1.062 1.641-3.187 1.641zm-.187-7.578q-.875 0-1.469.64-.594.625-.734 1.782h4.234v-.11q-.063-1.109-.594-1.703-.531-.61-1.437-.61zm10.07 5.172q0-.578-.437-.907-.438-.328-1.547-.562-1.094-.234-1.735-.563-.64-.328-.953-.78-.312-.454-.312-1.079 0-1.031.875-1.75.89-.719 2.25-.719 1.437 0 2.328.75.906.735.906 1.891h-1.453q0-.594-.516-1.016-.5-.437-1.265-.437-.782 0-1.235.344-.437.343-.437.89 0 .531.406.797.422.266 1.5.516 1.078.234 1.75.578.672.328 1 .797.328.468.328 1.156 0 1.125-.906 1.812-.906.688-2.36.688-1.015 0-1.796-.36-.782-.359-1.22-1-.437-.656-.437-1.406h1.438q.047.735.578 1.157.547.421 1.438.421.828 0 1.312-.328.5-.328.5-.89zm5.297-8.25v2.047h1.578v1.109h-1.578v5.25q0 .5.203.766.219.25.719.25.25 0 .687-.094v1.172q-.562.156-1.11.156-.968 0-1.468-.578-.484-.594-.484-1.672v-5.25h-1.531v-1.11h1.53V22.12h1.454zM893 32.62h-7.453v-1.047l3.938-4.375q.875-.985 1.203-1.61.328-.625.328-1.28 0-.891-.547-1.454-.531-.578-1.422-.578-1.078 0-1.687.61-.594.609-.594 1.702h-1.438q0-1.562 1-2.53 1.016-.97 2.719-.97 1.578 0 2.5.829.922.828.922 2.218 0 1.672-2.14 4l-3.048 3.297h5.72v1.188zm12.29-5.266h-4.923v4.031h5.72v1.235h-7.22V21.245h7.141v1.234h-5.64v3.656h4.921v1.22zm3.812-3.187l.047 1.062q.968-1.219 2.53-1.219 2.673 0 2.704 3.016v5.594h-1.453v-5.594q0-.922-.422-1.36-.406-.437-1.266-.437-.703 0-1.234.375t-.828.984v6.032h-1.453v-8.453h1.375zm7.11 4.156q0-1.953.921-3.125.922-1.188 2.406-1.188 1.485 0 2.36 1.016V20.62h1.437v12h-1.328l-.063-.907q-.875 1.063-2.421 1.063-1.47 0-2.391-1.203-.922-1.203-.922-3.14v-.11zm1.437.156q0 1.438.593 2.25.594.813 1.641.813 1.375 0 2.016-1.235v-3.875q-.657-1.203-2-1.203-1.063 0-1.657.828-.593.813-.593 2.422z"/><path d="M880.45 273.205c0 15.655-6.34 28.347-14.163 28.347H599.873c-7.822 0-14.162 12.69-14.162 28.346 0-15.655-6.341-28.346-14.163-28.346H310.392c-7.822 0-14.163-12.692-14.163-28.347z"/><path d="M880.45 273.205c0 15.655-6.34 28.347-14.163 28.347H599.873c-7.822 0-14.162 12.69-14.162 28.346 0-15.655-6.341-28.346-14.163-28.346H310.392c-7.822 0-14.163-12.692-14.163-28.347"/><path stroke="#4285f4" stroke-width="2" stroke-linejoin="round" stroke-linecap="butt" d="M880.45 273.205c0 15.655-6.34 28.347-14.163 28.347H599.873c-7.822 0-14.162 12.69-14.162 28.346 0-15.655-6.341-28.346-14.163-28.346H310.392c-7.822 0-14.163-12.692-14.163-28.347"/><path d="M519.441 322.46h132.126v43.023H519.441z"/><path fill="#4285f4" d="M539.5 349.831v-11.375h3.984q2.079 0 3.141.797 1.078.781 1.078 2.313 0 .843-.437 1.484-.422.625-1.188.922.875.219 1.375.89.5.657.5 1.626 0 1.64-1.047 2.484-1.047.844-2.984.86H539.5zm2.344-4.953v3.063h2.015q.829 0 1.282-.39.468-.392.468-1.095 0-1.562-1.609-1.578h-2.156zm0-1.656h1.734q1.781-.031 1.781-1.422 0-.766-.453-1.11-.453-.343-1.422-.343h-1.64v2.875zm10.101 6.61h-2.265v-8.454h2.265v8.453zm-2.39-10.641q0-.516.328-.844.344-.328.937-.328.579 0 .922.328.344.328.344.844 0 .515-.36.843-.343.329-.921.329-.563 0-.906-.329-.344-.328-.344-.843zm6.633 10.64h-2.266v-12h2.266v12zm4.242 0h-2.266v-12h2.266v12zm6.758 0q-.157-.312-.22-.765-.827.922-2.14.922-1.234 0-2.062-.72-.813-.718-.813-1.812 0-1.343 1-2.062 1-.719 2.875-.735h1.047v-.484q0-.578-.312-.922-.297-.36-.938-.36-.578 0-.906.282-.313.266-.313.734h-2.265q0-.734.453-1.359t1.281-.969q.828-.359 1.86-.359 1.562 0 2.484.781.922.781.922 2.203v3.672q0 1.203.328 1.813v.14h-2.281zm-1.86-1.578q.5 0 .922-.219.422-.218.625-.593v-1.453h-.844q-1.703 0-1.812 1.171v.125q0 .422.297.704.297.265.812.265zm13.156-2.578q0 2.031-.875 3.172-.859 1.14-2.406 1.14-1.375 0-2.203-1.062l-.094.906h-2.03v-12h2.25v4.297q.78-.906 2.062-.906 1.546 0 2.421 1.14.875 1.126.875 3.188v.125zm-2.25-.156q0-1.281-.406-1.875-.406-.594-1.219-.594-1.078 0-1.484.89v3.329q.422.89 1.5.89 1.094 0 1.438-1.078.171-.515.171-1.562zm6.024 4.312h-2.266v-12h2.266v12zm5.758.157q-1.86 0-3.032-1.141-1.171-1.14-1.171-3.047v-.219q0-1.265.484-2.265.5-1.016 1.406-1.547.906-.547 2.063-.547 1.734 0 2.718 1.094 1 1.093 1 3.093v.922h-5.375q.11.828.657 1.328.547.5 1.39.5 1.313 0 2.047-.937l1.11 1.234q-.516.72-1.391 1.125-.86.407-1.906.407zm-.266-6.938q-.672 0-1.094.453-.406.453-.53 1.297h3.14v-.187q-.016-.75-.407-1.157-.39-.406-1.109-.406zm17.711-2.703h-3.484v9.484h-2.344v-9.484h-3.438v-1.89h9.266v1.89zm3.57 9.484h-2.265v-8.453h2.265v8.453zm-2.39-10.64q0-.516.328-.844.344-.328.937-.328.578 0 .922.328.344.328.344.844 0 .515-.36.843-.343.329-.921.329-.563 0-.907-.329-.343-.328-.343-.843zm6.367 2.187l.078.938q.89-1.094 2.422-1.094 1.64 0 2.25 1.281.89-1.281 2.531-1.281 1.375 0 2.047.797.672.797.672 2.406v5.406h-2.266v-5.39q0-.719-.281-1.047-.281-.344-.984-.344-1.016 0-1.407.969v5.812h-2.25v-5.39q0-.735-.296-1.063-.282-.328-.985-.328-.953 0-1.39.797v5.984h-2.25v-8.453h2.109zm15.633 8.61q-1.86 0-3.032-1.141-1.171-1.14-1.171-3.047v-.219q0-1.265.484-2.265.5-1.016 1.406-1.547.906-.547 2.063-.547 1.734 0 2.718 1.094 1 1.093 1 3.093v.922h-5.375q.11.828.657 1.328.547.5 1.39.5 1.313 0 2.047-.937l1.11 1.234q-.516.72-1.391 1.125-.86.407-1.906.407zm-.266-6.938q-.672 0-1.094.453-.406.453-.53 1.297h3.14v-.187q-.016-.75-.407-1.157-.39-.406-1.109-.406z"/><path d="M982.908 345.205c0 15.655-6.34 28.346-14.162 28.346H598.684c-7.822 0-14.163 12.691-14.163 28.346 0-15.655-6.34-28.346-14.162-28.346h-349.1c-7.821 0-14.162-12.691-14.162-28.346z"/><path d="M982.908 345.205c0 15.655-6.34 28.346-14.162 28.346H598.684c-7.822 0-14.163 12.691-14.163 28.346 0-15.655-6.34-28.346-14.162-28.346h-349.1c-7.821 0-14.162-12.691-14.162-28.346"/><path stroke="#666" stroke-width="2" stroke-linejoin="round" stroke-linecap="butt" d="M982.908 345.205c0 15.655-6.34 28.346-14.162 28.346H598.684c-7.822 0-14.163 12.691-14.163 28.346 0-15.655-6.34-28.346-14.162-28.346h-349.1c-7.821 0-14.162-12.691-14.162-28.346"/><path d="M519.441 394.46h132.126v43.023H519.441z"/><path fill="#666" d="M537.977 421.831h-1.5v-11.375h1.5v11.375zm3.883-8.453l.046 1.063q.97-1.22 2.532-1.22 2.672 0 2.703 3.016v5.594h-1.453v-5.594q0-.921-.422-1.359-.406-.437-1.266-.437-.703 0-1.234.375t-.828.984v6.031h-1.453v-8.453h1.375zm12.375 6.203q0-.578-.438-.906-.437-.328-1.547-.563-1.094-.234-1.734-.562-.64-.328-.953-.781-.313-.453-.313-1.078 0-1.032.875-1.75.89-.72 2.25-.72 1.438 0 2.328.75.907.735.907 1.891h-1.454q0-.593-.515-1.015-.5-.438-1.266-.438-.781 0-1.234.344-.438.344-.438.89 0 .532.407.798.421.265 1.5.515 1.078.235 1.75.578.671.328 1 .797.328.469.328 1.156 0 1.125-.907 1.813-.906.687-2.359.687-1.016 0-1.797-.359-.781-.36-1.219-1-.437-.656-.437-1.406h1.437q.047.734.579 1.156.546.422 1.437.422.828 0 1.313-.328.5-.328.5-.89zm5.296-8.25v2.047h1.579v1.11h-1.579v5.25q0 .5.204.765.218.25.718.25.25 0 .688-.094v1.172q-.563.156-1.11.156-.968 0-1.468-.578-.485-.593-.485-1.672v-5.25h-1.531v-1.109h1.531v-2.047h1.453zm8.477 10.5q-.125-.25-.203-.89-1 1.046-2.406 1.046-1.25 0-2.047-.703-.797-.718-.797-1.797 0-1.328 1-2.046 1-.735 2.828-.735h1.406v-.672q0-.75-.453-1.203-.453-.453-1.344-.453-.765 0-1.297.39-.515.391-.515.954h-1.453q0-.64.437-1.219.453-.594 1.219-.937.781-.344 1.703-.344 1.453 0 2.281.734.828.719.86 2v3.89q0 1.173.297 1.86v.125h-1.516zm-2.39-1.11q.671 0 1.28-.343.61-.36.891-.922v-1.734h-1.14q-2.657 0-2.657 1.562 0 .672.453 1.063.454.375 1.172.375zm7.25-7.343l.046 1.063q.969-1.22 2.531-1.22 2.672 0 2.704 3.016v5.594h-1.454v-5.594q0-.921-.421-1.359-.407-.437-1.266-.437-.703 0-1.234.375-.532.375-.829.984v6.031h-1.453v-8.453h1.375zm10.843 7.422q.781 0 1.36-.469.578-.469.64-1.172h1.36q-.032.735-.5 1.39-.454.657-1.235 1.048-.766.39-1.625.39-1.719 0-2.75-1.156-1.016-1.156-1.016-3.156v-.234q0-1.235.454-2.188.453-.969 1.296-1.5.86-.531 2.016-.531 1.422 0 2.36.86.937.843 1 2.202h-1.36q-.062-.828-.625-1.343-.562-.532-1.375-.532-1.11 0-1.719.797-.593.781-.593 2.281v.282q0 1.453.593 2.25.61.78 1.72.78zm8.5 1.187q-1.719 0-2.797-1.125-1.078-1.14-1.078-3.03v-.266q0-1.25.469-2.235.484-1 1.344-1.547.875-.562 1.875-.562 1.656 0 2.562 1.094.922 1.078.922 3.093v.61h-5.734q.03 1.25.734 2.015.703.766 1.781.766.766 0 1.297-.313.531-.312.922-.828l.89.688q-1.062 1.64-3.187 1.64zm-.187-7.578q-.875 0-1.47.64-.593.626-.734 1.782h4.235v-.11q-.063-1.109-.594-1.702-.531-.61-1.437-.61zm17.203-2.718h-3.657v10.14h-1.5v-10.14h-3.64v-1.235h8.797v1.235zm3.031 10.14h-1.453v-8.453h1.453v8.453zm-1.563-10.703q0-.344.204-.578.218-.25.64-.25.422 0 .64.25.22.234.22.594 0 .343-.22.578-.218.234-.64.234-.422 0-.64-.234-.204-.235-.204-.594zm5.227 2.25l.047.938q.922-1.094 2.5-1.094 1.781 0 2.422 1.36.422-.61 1.094-.985.671-.375 1.593-.375 2.782 0 2.828 2.937v5.672h-1.437v-5.578q0-.906-.422-1.36-.406-.452-1.39-.452-.797 0-1.329.484-.531.484-.625 1.297v5.61h-1.453v-5.548q0-1.843-1.797-1.843-1.422 0-1.953 1.218v6.172h-1.437v-8.453h1.359zm16.18 8.61q-1.719 0-2.797-1.126-1.078-1.14-1.078-3.03v-.266q0-1.25.468-2.235.485-1 1.344-1.547.875-.562 1.875-.562 1.656 0 2.563 1.094.922 1.078.922 3.093v.61h-5.735q.031 1.25.735 2.015.703.766 1.78.766.766 0 1.298-.313.531-.312.922-.828l.89.688q-1.062 1.64-3.187 1.64zm-.188-7.579q-.875 0-1.469.64-.593.626-.734 1.782h4.234v-.11q-.062-1.109-.593-1.702-.532-.61-1.438-.61z"/><path d="M983.16 264.857v72.22"/><path stroke="#666" stroke-linejoin="round" stroke-linecap="butt" stroke-dasharray="4.0,3.0" d="M983.16 264.857v72.22"/><path fill="#4285f4" fill-opacity=".288" d="M0 107.024h35.59v36.819H0z" fill-rule="evenodd"/><path stroke="#4285f4" stroke-linejoin="round" stroke-linecap="butt" d="M0 107.024h35.59v36.819H0z"/><path fill="#efefef" d="M0 153.052h35.59v36.82H0z" fill-rule="evenodd"/><path stroke="#666" stroke-linejoin="round" stroke-linecap="butt" d="M0 153.052h35.59v36.82H0z"/><path d="M38.593 103.921h85.858v43.024H38.593z"/><path fill="#666" d="M48.921 131.293v-11.375h3.72q1.843 0 2.78.766.938.765.938 2.265 0 .797-.453 1.407-.453.609-1.235.953.922.25 1.453.984.532.719.532 1.719 0 1.531-1 2.406-.985.875-2.797.875H48.92zm1.5-5.328v4.094h2.47q1.046 0 1.655-.532.61-.546.61-1.5 0-2.062-2.235-2.062h-2.5zm0-1.203h2.266q.984 0 1.562-.485.594-.5.594-1.343 0-.938-.547-1.36-.547-.422-1.656-.422h-2.219v3.61zm9.805 6.531h-1.453v-8.453h1.453v8.453zm-1.562-10.703q0-.344.203-.578.218-.25.64-.25.422 0 .64.25.22.234.22.594 0 .343-.22.578-.218.234-.64.234-.422 0-.64-.234-.203-.235-.203-.594zm5.445 10.703h-1.453v-12h1.453v12zm3.883 0h-1.453v-12h1.453v12zm7.523 0q-.125-.25-.203-.89-1 1.046-2.406 1.046-1.25 0-2.047-.703-.797-.719-.797-1.797 0-1.328 1-2.047 1-.734 2.828-.734h1.406v-.672q0-.75-.453-1.203-.453-.453-1.344-.453-.765 0-1.296.39-.516.391-.516.954h-1.453q0-.64.437-1.22.453-.593 1.22-.937.78-.343 1.702-.343 1.453 0 2.281.734.829.719.86 2v3.89q0 1.173.297 1.86v.125h-1.516zm-2.39-1.11q.671 0 1.28-.343.61-.36.891-.922v-1.734h-1.14q-2.657 0-2.657 1.562 0 .672.454 1.063.453.375 1.171.375zm13.03-3.03q0 1.937-.89 3.124-.89 1.172-2.39 1.172-1.594 0-2.47-1.14l-.077.984h-1.329v-12h1.454v4.469q.875-1.078 2.406-1.078 1.547 0 2.422 1.172.875 1.156.875 3.171v.125zm-1.437-.157q0-1.484-.578-2.281-.562-.813-1.64-.813-1.422 0-2.047 1.329v3.656q.656 1.328 2.062 1.328 1.047 0 1.625-.797.578-.812.578-2.422zm4.836 4.297h-1.453v-12h1.453v12zm5.82.156q-1.718 0-2.796-1.125-1.079-1.14-1.079-3.03v-.267q0-1.25.47-2.234.484-1 1.343-1.547.875-.562 1.875-.562 1.656 0 2.562 1.093.922 1.079.922 3.094v.61h-5.734q.031 1.25.734 2.015.703.766 1.782.766.765 0 1.296-.313.532-.312.922-.828l.891.688q-1.063 1.64-3.188 1.64zm-.187-7.578q-.875 0-1.469.64-.594.626-.734 1.782h4.234v-.11q-.062-1.109-.594-1.702-.53-.61-1.437-.61z"/><path d="M38.593 149.95h114.362v43.024H38.593z"/><path fill="#666" d="M57.656 177.322h-1.5l-5.735-8.766v8.766h-1.5v-11.375h1.5l5.75 8.797v-8.797h1.485v11.375zm2.062-4.313q0-1.234.485-2.218.484-1 1.359-1.532.875-.546 1.984-.546 1.735 0 2.797 1.203 1.063 1.187 1.063 3.172v.093q0 1.235-.47 2.22-.468.983-1.358 1.53-.875.547-2.016.547-1.719 0-2.781-1.187-1.063-1.203-1.063-3.172v-.11zm1.453.172q0 1.407.64 2.266.657.844 1.75.844 1.11 0 1.75-.86.657-.86.657-2.422 0-1.39-.672-2.25-.656-.859-1.75-.859-1.062 0-1.718.86-.657.843-.657 2.421zm9.422-4.312l.047 1.062q.969-1.218 2.531-1.218 2.672 0 2.703 3.015v5.594h-1.453v-5.594q0-.922-.422-1.36-.406-.437-1.265-.437-.703 0-1.235.375-.53.375-.828.985v6.03h-1.453v-8.452h1.375zm10.469 4.203h-3.813V171.9h3.813v1.172zm8.555.11q0 1.937-.891 3.124-.89 1.172-2.39 1.172-1.594 0-2.47-1.14l-.078.984H82.46v-12h1.453v4.469q.875-1.078 2.407-1.078 1.547 0 2.422 1.171.875 1.157.875 3.172v.125zm-1.438-.157q0-1.484-.578-2.281-.563-.813-1.64-.813-1.423 0-2.048 1.328v3.657q.657 1.328 2.063 1.328 1.047 0 1.625-.797.578-.813.578-2.422zm4.836 4.297h-1.453v-8.453h1.453v8.453zm-1.562-10.703q0-.344.203-.578.218-.25.64-.25.422 0 .64.25.22.234.22.593 0 .344-.22.579-.218.234-.64.234-.422 0-.64-.234-.203-.235-.203-.594zm5.445 10.703h-1.453v-12h1.453v12zm3.883 0h-1.453v-12h1.453v12zm7.523 0q-.125-.25-.203-.89-1 1.046-2.406 1.046-1.25 0-2.047-.703-.797-.719-.797-1.797 0-1.328 1-2.047 1-.734 2.828-.734h1.406v-.672q0-.75-.453-1.203-.453-.453-1.344-.453-.765 0-1.296.39-.516.391-.516.954h-1.453q0-.641.437-1.22.453-.593 1.22-.937.78-.343 1.702-.343 1.453 0 2.281.734.829.719.86 2v3.89q0 1.172.297 1.86v.125h-1.516zm-2.39-1.11q.671 0 1.28-.343.61-.36.891-.922v-1.734h-1.14q-2.657 0-2.657 1.562 0 .672.454 1.063.453.375 1.171.375zm13.03-3.03q0 1.937-.89 3.124-.89 1.172-2.39 1.172-1.594 0-2.47-1.14l-.077.984h-1.329v-12h1.454v4.469q.875-1.078 2.406-1.078 1.547 0 2.422 1.171.875 1.157.875 3.172v.125zm-1.437-.157q0-1.484-.578-2.281-.562-.813-1.64-.813-1.422 0-2.047 1.328v3.657q.656 1.328 2.062 1.328 1.047 0 1.625-.797.578-.813.578-2.422zm4.836 4.297h-1.453v-12h1.453v12zm5.82.156q-1.718 0-2.796-1.125-1.079-1.14-1.079-3.031v-.266q0-1.25.47-2.234.484-1 1.343-1.547.875-.562 1.875-.562 1.656 0 2.562 1.093.922 1.078.922 3.094v.61h-5.734q.031 1.25.734 2.015.703.766 1.782.766.765 0 1.296-.313.532-.312.922-.828l.891.688q-1.063 1.64-3.188 1.64zm-.187-7.578q-.875 0-1.469.64-.594.626-.734 1.782h4.234v-.11q-.062-1.109-.594-1.703-.53-.609-1.437-.609z"/></g></svg>